<svg width="380" height="380" viewBox="0 0 380 380" fill="none" xmlns="http://www.w3.org/2000/svg">
<path d="M346.278 160.66C362.073 176.454 370.952 197.868 370.952 220.197V294.04C370.952 336.525 336.503 370.952 294.033 370.952H204.29C192.134 370.952 180.474 366.114 171.88 357.52L115.996 301.642C111.137 296.785 108.413 290.212 108.413 283.334V250.394C108.413 243.535 111.137 236.943 115.996 232.086L174.033 174.054H130.42C123.561 174.054 116.968 176.778 112.109 181.636L81.2424 212.5H81.2233L61.6363 192.877C56.7966 188.018 54.0719 181.446 54.0719 174.587V141.666C54.0719 134.807 56.7966 128.216 61.6552 123.357L92.5222 92.4938H66.5331C62.7794 92.4938 59.1783 93.9798 56.5299 96.647L38.1622 115.032H38.1431L28.6735 105.544C24.5389 101.41 22.2334 95.8087 22.2334 89.9599V63.1733C22.2334 57.3244 24.5579 51.7233 28.6925 47.589L38.1431 38.1395H28.1972C26.1203 38.1395 24.1387 38.9587 22.6716 40.4256L15.6408 47.4557L11.3347 43.1501C9.8676 41.683 9.0483 39.7018 9.0483 37.6251V16.8397C8.99114 12.534 12.497 9.04761 16.8031 9.04761H37.6096C39.6864 9.04761 41.6681 9.86683 43.1351 11.3338L47.4413 15.6395L54.0338 22.2313H89.9308C95.7804 22.2313 101.401 24.5556 105.536 28.7089L114.986 38.1776L130.934 54.0857H174.567C181.445 54.0857 188.019 56.81 192.877 61.6681L212.464 81.2723L239.654 108.44H239.672V220.712C239.672 232.885 244.512 244.545 253.125 253.156L258.918 258.929L305.331 305.339C315.354 315.359 332.503 308.272 332.503 294.099V220.254C332.503 208.099 327.663 196.439 319.069 187.847L266.882 135.665L239.691 108.478H283.344C290.204 108.478 296.795 111.202 301.654 116.061L332.522 146.924L346.297 160.699L346.278 160.66Z" fill="white"/>
</svg>
