<svg width="248" height="248" viewBox="0 0 248 248" fill="none" xmlns="http://www.w3.org/2000/svg">
<path d="M230.737 103.735C241.544 114.541 247.619 129.193 247.619 144.471V194.995C247.619 224.064 224.048 247.619 194.99 247.619H133.587C125.27 247.619 117.291 244.308 111.412 238.429L73.1753 200.196C69.8509 196.873 67.9867 192.376 67.9867 187.669V165.132C67.9867 160.439 69.8509 155.928 73.1753 152.605L112.885 112.899H83.044C78.3509 112.899 73.8401 114.763 70.5158 118.087L49.3964 139.204H49.3834L35.9818 125.778C32.6703 122.454 30.8061 117.957 30.8061 113.264V90.7389C30.8061 86.0462 32.6703 81.5359 35.9947 78.212L57.1142 57.0948H39.3321C36.7639 57.0948 34.2999 58.1115 32.4879 59.9364L19.9205 72.5155H19.9074L13.4282 66.024C10.5993 63.1952 9.02184 59.3629 9.02184 55.361V37.0334C9.02184 33.0315 10.6123 29.1992 13.4413 26.3704L19.9074 19.905H13.1023C11.6813 19.905 10.3255 20.4655 9.32169 21.4691L4.51116 26.2793L1.56487 23.3333C0.561048 22.3295 0.000471554 20.9739 0.000471554 19.553V5.33145C-0.0386384 2.38546 2.36011 0 5.30639 0H19.5424C20.9634 0 22.3193 0.560519 23.323 1.56424L26.2694 4.51022L30.78 9.02045H55.3411C59.3435 9.02045 63.1892 10.6108 66.0182 13.4525L72.4844 19.931L83.3961 30.8155H113.25C117.956 30.8155 122.454 32.6796 125.778 36.0035L139.18 49.4169L157.783 68.0053H157.796V144.823C157.796 153.152 161.107 161.13 167.001 167.021L170.964 170.972L202.72 202.726C209.578 209.582 221.312 204.732 221.312 195.035V144.509C221.312 136.193 218 128.215 212.12 122.337L176.413 86.6327L157.809 68.0314H187.677C192.37 68.0314 196.88 69.8954 200.204 73.2194L221.324 94.3367L230.75 103.761L230.737 103.735Z" fill="black"/>
</svg>
